<svg width="16" height="16" viewBox="0 0 16 16" fill="none" xmlns="http://www.w3.org/2000/svg">
<path fill-rule="evenodd" clip-rule="evenodd" d="M0.929612 13.6568C0.539088 14.0473 0.539088 14.6805 0.929612 15.071C1.32014 15.4615 1.9533 15.4615 2.34383 15.071L8.00085 9.41399L13.658 15.0711C14.0485 15.4616 14.6817 15.4616 15.0722 15.0711C15.4627 14.6806 15.4627 14.0474 15.0722 13.6569L9.41506 7.99978L15.0717 2.34309C15.4623 1.95257 15.4623 1.3194 15.0717 0.928879C14.6812 0.538355 14.0481 0.538355 13.6575 0.928879L8.00085 6.58557L2.34427 0.928985C1.95374 0.538461 1.32058 0.538461 0.930055 0.928985C0.53953 1.31951 0.539531 1.95267 0.930055 2.3432L6.58663 7.99978L0.929612 13.6568Z" fill="#9797AF"/>
</svg>
